<svg width="24" height="24" fill="none" xmlns="http://www.w3.org/2000/svg"><path d="M10 12.261h.5l-.118-.321-.382.321ZM4.41 5.615l.383-.321-.383.321Zm15.236 0-.383-.321.383.321ZM14 12.33l-.383-.322-.117.322h.5ZM14 17l.3.4.2-.4H14Zm-4 3h-.5l.8.4-.3-.4Zm.382-8.06L4.793 5.294l-.765.643 5.59 6.646.764-.643ZM4.793 5.294a.5.5 0 0 1 .383-.822v-1c-1.275 0-1.969 1.49-1.148 2.465l.765-.643Zm.383-.822H18.88v-1H5.176v1Zm13.704 0a.5.5 0 0 1 .383.822l.765.643c.821-.975.127-2.465-1.148-2.465v1Zm.383.822-5.646 6.713.765.643 5.646-6.713-.765-.643ZM13.5 12.329V17h1v-4.671h-1Zm.2 4.271-4 3 .6.8 4-3-.6-.8ZM10.5 20v-7.739h-1V20h1Z" fill="#0B0B0B"/></svg>